<svg width="29" height="28" viewBox="0 0 29 28" fill="none" xmlns="http://www.w3.org/2000/svg">
<path fill-rule="evenodd" clip-rule="evenodd" d="M4.66659 23.9166H13.9999V25.6666H4.66659C3.37792 25.6666 2.33325 24.6219 2.33325 23.3333V4.66659C2.33325 3.37792 3.37792 2.33325 4.66659 2.33325H14.5567C15.1617 2.33325 15.7431 2.56825 16.1782 2.98866L20.288 6.96013C20.743 7.39979 20.9999 8.00536 20.9999 8.63805V9.33325H19.2499V8.63805C19.2499 8.47988 19.1857 8.32849 19.0719 8.21857L14.9621 4.2471C14.8533 4.142 14.708 4.08325 14.5567 4.08325H4.66659C4.34442 4.08325 4.08325 4.34442 4.08325 4.66659V23.3333C4.08325 23.6554 4.34442 23.9166 4.66659 23.9166ZM8.15861 13.4166H9.61694C10.4224 13.4166 11.0753 14.0695 11.0753 14.8749V17.7916C11.0753 18.597 10.4224 19.2499 9.61694 19.2499H8.15861V13.4166ZM6.40861 11.6666H8.15861H9.61694C11.3889 11.6666 12.8253 13.103 12.8253 14.8749V17.7916C12.8253 19.5635 11.3889 20.9999 9.61694 20.9999H8.15861H6.40861V19.2499V13.4166V11.6666ZM26.2844 17.7916V17.4999H28.0344V17.7916C28.0344 19.5635 26.598 20.9999 24.8261 20.9999C23.0541 20.9999 21.6177 19.5635 21.6177 17.7916V14.8749C21.6177 13.103 23.0541 11.6666 24.8261 11.6666C26.598 11.6666 28.0344 13.103 28.0344 14.8749V15.1666H26.2844V14.8749C26.2844 14.0695 25.6315 13.4166 24.8261 13.4166C24.0206 13.4166 23.3677 14.0695 23.3677 14.8749V17.7916C23.3677 18.597 24.0206 19.2499 24.8261 19.2499C25.6315 19.2499 26.2844 18.597 26.2844 17.7916ZM18.68 17.7916V14.8749C18.68 14.0695 18.0271 13.4166 17.2216 13.4166C16.4162 13.4166 15.7633 14.0695 15.7633 14.8749V17.7916C15.7633 18.597 16.4162 19.2499 17.2216 19.2499C18.0271 19.2499 18.68 18.597 18.68 17.7916ZM17.2216 11.6666C15.4497 11.6666 14.0133 13.103 14.0133 14.8749V17.7916C14.0133 19.5635 15.4497 20.9999 17.2216 20.9999C18.9936 20.9999 20.43 19.5635 20.43 17.7916V14.8749C20.43 13.103 18.9936 11.6666 17.2216 11.6666Z" fill="#7700FF"/>
</svg>
